<svg id="Capa_1" enable-background="new 0 0 512 512" height="512" viewBox="0 0 512 512" width="512" xmlns="http://www.w3.org/2000/svg"><g><path d="m472.436 120.242h-432.872c-21.815 0-39.564 17.748-39.564 39.564v192.387c0 21.816 17.749 39.564 39.564 39.564h432.871c21.816 0 39.564-17.749 39.564-39.564v-192.387c.001-21.816-17.748-39.564-39.563-39.564zm24.564 231.952c0 13.545-11.02 24.564-24.564 24.564h-432.872c-13.544 0-24.564-11.019-24.564-24.564v-192.388c0-13.545 11.02-24.564 24.564-24.564h432.871c13.545 0 24.564 11.02 24.564 24.564v192.388z"/><path d="m472.436 152.306h-88.177c-4.142 0-7.5 3.358-7.5 7.5s3.358 7.5 7.5 7.5h16.15c-11.208 15.668-18.486 25.2-22.729 30.757-6.565 8.596-8.329 10.906-6.961 15.354.77 2.503 2.682 4.428 5.246 5.283 1.043.348 2.461.822 22.577.822 8.089 0 19.206-.077 34.532-.269 4.142-.052 7.457-3.452 7.405-7.594s-3.45-7.44-7.594-7.405c-12.906.162-29.897.286-41.239.233 5.341-7.014 14.071-18.623 27.16-37.181h46.13v177.387h-28.311c-1.624-8.567-6.35-16.043-12.965-21.221 8.264-6.468 13.59-16.525 13.59-27.808 0-19.469-15.839-35.308-35.308-35.308-16.834 0-31.405 11.974-34.645 28.472-.798 4.064 1.85 8.007 5.914 8.805 4.065.799 8.006-1.849 8.805-5.914 1.862-9.481 10.243-16.363 19.926-16.363 11.198 0 20.308 9.11 20.308 20.308s-9.11 20.308-20.308 20.308c-4.142 0-7.5 3.358-7.5 7.5s3.358 7.5 7.5 7.5c8.89 0 16.446 5.751 19.19 13.721h-85.488v-177.387h16.548c4.142 0 7.5-3.358 7.5-7.5s-3.358-7.5-7.5-7.5h-312.628c-4.142 0-7.5 3.358-7.5 7.5v192.387c0 4.142 3.358 7.5 7.5 7.5h24.048c4.142 0 7.5-3.358 7.5-7.5s-3.358-7.5-7.5-7.5h-16.548v-177.387h129.291v177.387h-80.678c-4.142 0-7.5 3.358-7.5 7.5s3.358 7.5 7.5 7.5h376.758c4.142 0 7.5-3.358 7.5-7.5v-192.387c.001-4.142-3.357-7.5-7.499-7.5zm-281.081 15h129.29v177.387h-129.29z"/><path d="m265.01 195.023h-22.919c-4.142 0-7.5 3.358-7.5 7.5s3.358 7.5 7.5 7.5h15.419v99.729c0 4.142 3.358 7.5 7.5 7.5s7.5-3.358 7.5-7.5v-107.229c0-4.142-3.358-7.5-7.5-7.5z"/><path d="m149.969 280.932v-49.589c0-21.233-17.274-38.508-38.508-38.508s-38.508 17.275-38.508 38.508v49.589c0 21.233 17.274 38.508 38.508 38.508s38.508-17.275 38.508-38.508zm-62.016 0v-49.589c0-12.962 10.545-23.508 23.508-23.508s23.508 10.546 23.508 23.508v49.589c0 12.962-10.545 23.508-23.508 23.508s-23.508-10.546-23.508-23.508z"/></g></svg>