<svg width="24" height="25" viewBox="0 0 24 25" fill="none" xmlns="http://www.w3.org/2000/svg">
<path d="M2 5.1C2 4.53995 2 4.25992 2.10899 4.04601C2.20487 3.85785 2.35785 3.70487 2.54601 3.60899C2.75992 3.5 3.03995 3.5 3.6 3.5H20.4C20.9601 3.5 21.2401 3.5 21.454 3.60899C21.6422 3.70487 21.7951 3.85785 21.891 4.04601C22 4.25992 22 4.53995 22 5.1V5.76939C22 6.03819 22 6.17259 21.9672 6.29756C21.938 6.40831 21.8901 6.51323 21.8255 6.60776C21.7526 6.71443 21.651 6.80245 21.4479 6.9785L15.0521 12.5215C14.849 12.6975 14.7474 12.7856 14.6745 12.8922C14.6099 12.9868 14.562 13.0917 14.5328 13.2024C14.5 13.3274 14.5 13.4618 14.5 13.7306V18.9584C14.5 19.1539 14.5 19.2517 14.4685 19.3363C14.4406 19.411 14.3953 19.4779 14.3363 19.5315C14.2695 19.5922 14.1787 19.6285 13.9971 19.7012L10.5971 21.0612C10.2296 21.2082 10.0458 21.2817 9.89827 21.251C9.76927 21.2242 9.65605 21.1476 9.58325 21.0377C9.5 20.9122 9.5 20.7142 9.5 20.3184V13.7306C9.5 13.4618 9.5 13.3274 9.46715 13.2024C9.43805 13.0917 9.39014 12.9868 9.32551 12.8922C9.25258 12.7856 9.15102 12.6975 8.94789 12.5215L2.55211 6.9785C2.34898 6.80245 2.24742 6.71443 2.17449 6.60776C2.10986 6.51323 2.06195 6.40831 2.03285 6.29756C2 6.17259 2 6.03819 2 5.76939V5.1Z" stroke="#589130" stroke-width="2" stroke-linecap="round" stroke-linejoin="round"/>
</svg>
