<svg height="512" viewBox="0 0 96 96" width="512" xmlns="http://www.w3.org/2000/svg"><g id="Layer_4"><g><path d="m52.233 65.492-1.798-1.404c-3.769-2.955-8.388-4.499-13.14-4.469-1.155-1.827-3.802-4.979-8.52-5.23-.78.008-1.535.288-2.073.866-.525.563-.784 1.322-.708 2.035.061.794.049 2.317-.727 3.594-.831 1.384-1.552 2.881-1.484 4.517-.025.027-5.098 5.441-5.098 5.441-2.246-2.188-5.465-3.084-8.604-2.3-.633.159-2.212.627-3.419 1.061-.831.301-1.46.93-1.725 1.726-.263.794-.136 1.673.352 2.41 1.165 1.768 2.915 4.094 4.803 5.462-1.024 2.092-1.477 4.966-1.677 7.074-.085.883.217 1.722.826 2.3.506.481 1.182.741 1.9.741.144 0 .291-.011.438-.032 1.281-.186 2.896-.517 3.52-.673 2.693-.673 4.926-2.541 6.089-5.017l7.115 2.233c-.109.587-.242 1.199-.418 1.865-.218.822-.055 1.688.448 2.376.497.68 1.259 1.097 2.097 1.139.234.013.465.017.69.017 5.258 0 8.27-3.103 9.752-5.294.119-.047.236-.082.355-.132l.799-.33c4.979-2.09 8.929-5.962 11.125-10.911l.87-1.98c1.093-2.495.359-5.407-1.788-7.085zm-22.967-7.791c1.923.276 3.299 1.295 4.236 2.303-1.796.367-3.514.997-5.109 1.864.69-1.451.893-2.947.873-4.167zm2.17 29.038c1.161.247 2.297.379 3.415.383-1.02.51-2.235.84-3.683.849.106-.428.188-.831.268-1.232zm19.604-15.471-.867 1.974c-1.856 4.183-5.197 7.459-9.402 9.225l-.803.333c-3.385 1.425-6.592 1.44-10.476-.006l-8.573-2.692c-.472-.157-.995-.108-1.436.121l-.724.464-.193.663c-.587 2.023-2.218 3.596-4.26 4.106-.4.102-1.53.339-2.591.515.277-2.433.793-4.454 1.436-5.604.701-1.258.303-2.853-.906-3.63-1.108-.716-2.511-2.258-3.897-4.276 1.01-.339 2.119-.661 2.522-.762 2.38-.597 4.838.311 6.262 2.315.326.453.83.735 1.386.773l.948-.019 6.614-7.067c2.601-2.787 6.127-4.488 9.931-4.786 4.479-.375 8.886.968 12.419 3.736l1.8 1.406c.974.758 1.307 2.08.81 3.211z"/><path d="m46.29 66.57c-1.006-.604-2.187-.779-3.326-.493-2.35.587-3.785 2.978-3.196 5.326.498 1.995 2.294 3.329 4.263 3.329.352 0 .708-.042 1.064-.131 2.35-.587 3.784-2.978 3.197-5.329-.284-1.139-.995-2.098-2.002-2.702zm-1.984 4.876c-.606.155-1.23-.22-1.383-.83-.074-.297-.029-.601.128-.864.157-.26.406-.445.702-.519.092-.023.186-.034.28-.034.203 0 .405.055.585.163.26.155.445.405.519.699.152.612-.221 1.232-.831 1.385z"/><path d="m63.113 53.243c.087-.195.13-.411.13-.629 0-.411-.174-.845-.478-1.148-.151-.152-.324-.26-.542-.347-.585-.26-1.323-.087-1.756.347-.304.303-.478.737-.478 1.148 0 .218.022.434.109.629.087.197.216.369.369.521.151.152.325.282.52.369.196.087.412.108.629.108s.412-.021.607-.108c.196-.087.391-.216.542-.369.153-.153.261-.324.348-.521z"/><path d="m63.634 57.148c-.195.087-.369.195-.521.345-.303.305-.477.716-.477 1.15 0 .218.042.434.129.629.066.195.196.369.347.521.152.152.326.282.521.347.195.087.412.129.629.129.216 0 .433-.042.629-.129.195-.066.368-.195.52-.347s.26-.326.346-.521c.087-.195.131-.411.131-.629 0-.434-.174-.845-.478-1.15-.453-.455-1.169-.605-1.776-.345z"/><path d="m68.319 52.137c-.608-.608-1.692-.608-2.321 0-.13.152-.26.347-.347.542-.065.195-.108.413-.108.608 0 .216.021.434.108.629s.217.369.369.521c.152.15.326.282.521.369.195.064.412.108.608.108.216 0 .433-.044.629-.108.195-.087.369-.218.542-.369.15-.152.259-.326.346-.521s.13-.413.13-.629c0-.195-.043-.413-.13-.608-.088-.216-.197-.389-.347-.542z"/><path d="m70.724 37.001c-.15-.152-.324-.282-.52-.347-.412-.174-.846-.174-1.257 0-.196.066-.37.195-.521.347-.152.15-.26.324-.347.519-.087.197-.13.413-.13.629 0 .434.174.847.478 1.15.151.152.325.282.521.347.195.087.411.129.628.129s.434-.042.629-.129c.196-.066.37-.195.52-.347.305-.326.478-.716.478-1.15 0-.216-.043-.432-.13-.629-.066-.195-.196-.369-.349-.519z"/><path d="m64.501 35.417c.217 0 .433-.042.629-.129.195-.087.368-.195.52-.347s.282-.326.369-.542c.066-.195.109-.39.109-.608 0-.216-.043-.434-.109-.629-.087-.195-.216-.369-.369-.521-.129-.15-.325-.282-.52-.345-.391-.174-.846-.174-1.236 0-.218.064-.391.195-.542.345-.152.152-.26.326-.347.521s-.13.413-.13.629c0 .218.043.413.13.608.087.216.195.39.347.542.151.152.346.26.542.347.195.086.39.129.607.129z"/><path d="m60.944 36.848c-.151.152-.26.347-.347.542s-.129.39-.129.608c0 .432.174.845.477 1.148.152.152.347.284.542.369.195.066.391.11.608.11.216 0 .433-.044.629-.11.195-.085.369-.216.52-.369.174-.15.283-.324.369-.519.087-.197.109-.413.109-.629 0-.218-.022-.413-.109-.608-.086-.216-.217-.39-.369-.542-.586-.607-1.671-.607-2.3 0z"/><path d="m66.031 21.661c.311-.25.902-.777 1.508-1.351 1.453-1.381 2.38-3.232 2.612-5.208l.63-5.358c.383-.947 1.241-1.715 1.951-1.715h.008 14.295c.898 0 1.627-.729 1.627-1.627s-.729-1.627-1.627-1.627h-14.279c-.013 0-.025 0-.039 0-2.405 0-4.366 2.031-5.065 4.051l-.731 5.896c-.144 1.224-.72 2.37-1.62 3.228-.525.498-1.036.957-1.281 1.154-1.624 1.254-2.901 2.709-3.689 4.204-.592 1.112-.945 2.275-.945 3.098-.013 1.273.568 2.438 1.588 3.198 1.012.752 2.334.983 3.543.601l7.908-2.493-.165.184c-1.139 1.258-1.48 3.039-.894 4.649.565 1.548 1.858 2.605 3.539 2.825.178.023.349.034.516.034 1.844 0 2.871-1.3 3.638-2.27.253-.32 7.301-7.87 8.895-9.628h1.251c.898 0 1.627-.729 1.627-1.627s-.729-1.627-1.627-1.627h-2.694s-9.663 10.433-10.003 10.862c-.748.947-.919 1.044-1.205 1.027l-.102-.008c-.487-.095-.697-.479-.779-.705-.136-.371-.141-.919.252-1.353l1.963-2.179c.777-.851.883-2.078.26-3.052-.621-.974-1.777-1.402-2.878-1.046l-10.475 3.304c-.309.087-.543-.047-.629-.11-.106-.078-.281-.254-.277-.565.004-.148.119-.756.565-1.597.402-.758 1.215-1.923 2.828-3.169z"/><path d="m91.373 46.279c-6.993 0-10.394-1.021-13.995-2.101-3.667-1.099-7.459-2.236-14.929-2.236-7.469 0-11.261 1.137-14.929 2.236-3.6 1.08-7.002 2.101-13.993 2.101-6.987 0-10.386-1.021-13.984-2.101-3.665-1.099-7.455-2.236-14.918-2.236-.898 0-1.625.728-1.625 1.626s.727 1.627 1.627 1.627c6.987 0 10.385 1.021 13.983 2.101 3.665 1.099 7.454 2.236 14.919 2.236 7.469 0 11.261-1.137 14.929-2.236 3.6-1.08 7.002-2.101 13.993-2.101 6.993 0 10.393 1.021 13.995 2.101 3.667 1.099 7.459 2.236 14.929 2.236.898 0 1.627-.729 1.627-1.627-.002-.897-.731-1.626-1.629-1.626z"/></g></g></svg>