<svg width="18" height="17" viewBox="0 0 18 17" fill="none" xmlns="http://www.w3.org/2000/svg">
<ellipse cx="9.14988" cy="8.24679" rx="8.2324" ry="7.85342" fill="#E1F6E3"/>
<path d="M10.9981 7.41001L10.7772 7.62074C9.59513 8.74837 8.41297 9.87612 7.23069 11.004C6.99152 11.2321 6.70893 11.2821 6.42669 11.1575C6.15478 11.0355 6.00556 10.8123 6.04519 10.5424C6.0808 10.3474 6.17724 10.1672 6.32192 10.0253C7.46503 8.91505 8.62296 7.81898 9.7764 6.71863L9.99489 6.5102C9.92439 6.4987 9.8533 6.4908 9.78192 6.48653C9.31944 6.48456 8.85661 6.48883 8.39447 6.48324C8.02848 6.4793 7.77588 6.23898 7.77105 5.90496C7.76623 5.5407 7.9954 5.29643 8.37828 5.29413C9.44201 5.28755 10.5052 5.28679 11.5677 5.29183C11.9975 5.29413 12.2394 5.51571 12.2473 5.92107C12.2669 6.92728 12.2785 7.9336 12.2821 8.94004C12.2835 9.3089 12.0319 9.52588 11.6477 9.52292C11.2852 9.51964 11.0467 9.2974 11.0356 8.93905C11.0239 8.51364 11.0229 8.0879 11.0163 7.66216C11.015 7.5951 11.006 7.52934 10.9981 7.41001Z" fill="#04CE00"/>
</svg>
