<svg width="21" height="21" viewBox="0 0 21 21" fill="none" xmlns="http://www.w3.org/2000/svg">
<circle cx="10.189" cy="10.5" r="10.189" transform="rotate(90 10.189 10.5)" fill="#04CE00"/>
<path d="M11.2745 12.7875L11.0011 12.5141C9.53813 11.0511 8.075 9.58799 6.61173 8.12472C6.31572 7.82871 6.25089 7.47896 6.41255 7.12964C6.57079 6.79311 6.8604 6.60842 7.21058 6.65747C7.46358 6.70154 7.69741 6.82091 7.8815 6.99997C9.32188 8.41476 10.7439 9.84788 12.1715 11.2755L12.4419 11.5459C12.4568 11.4586 12.4671 11.3706 12.4726 11.2823C12.4752 10.7099 12.4696 10.1371 12.4769 9.5651C12.482 9.11213 12.7938 8.79948 13.2271 8.79351C13.6997 8.78754 14.0166 9.07118 14.0196 9.54505C14.0282 10.8616 14.0292 12.1774 14.0226 13.4925C14.0196 14.0244 13.7322 14.3238 13.2062 14.3337C11.9008 14.3578 10.5952 14.3722 9.28946 14.3767C8.8109 14.3784 8.52939 14.0671 8.53323 13.5915C8.5375 13.1428 8.82583 12.8476 9.29074 12.834C9.84267 12.8195 10.395 12.8182 10.9474 12.8101C11.0344 12.8084 11.1197 12.7973 11.2745 12.7875Z" fill="white"/>
</svg>
