<?xml version="1.0" encoding="utf-8"?>
<!-- Generator: Adobe Illustrator 24.1.0, SVG Export Plug-In . SVG Version: 6.00 Build 0)  -->
<svg version="1.1" id="Layer_1" xmlns="http://www.w3.org/2000/svg" xmlns:xlink="http://www.w3.org/1999/xlink" x="0px" y="0px"
	 viewBox="0 0 1000 1000" style="enable-background:new 0 0 1000 1000;" xml:space="preserve">
<style type="text/css">
	.st0{fill:#7DC669;}
	.st1{fill:#515351;}
</style>
<path class="st0" d="M333.96,407.66c-7.17,6.73-12.26,11.92-15.33,15.54c-7.33,8.74-14.84,17.59-22.54,26.55
	c-11.57,13.53-21.62,28.54-31.42,43.31c-9.01,13.62-16.78,28.49-23.26,44.65c-1.11,2.79-1.48,5.28-2.28,8.09
	c-0.35,1.22-0.78,1.24-1.31,0.09c-4.86-10.74-7.61-21.6-8.25-32.57c-1.06-17.89-1.08-36.83,4.36-54.33
	c19.04-61.31,73.92-95.57,132.63-115.8c11.99-4.13,24.36-8.44,37.13-12.98c1.08-0.39,1.48-0.02,1.22,1.08
	c-3.09,13.12-5.19,27.06-6.82,40.52c-2.63,21.71-5.79,40.71-9.47,56.96c-11.73,51.72-52.53,108.54-108.13,118.09
	c-9.89,1.68-19.55,3.2-28.95,4.56c-0.99,0.14-1.75-0.85-1.38-1.77c13.83-33.7,32.32-68.16,55.46-103.36
	c9.52-14.5,19.02-27.06,28.44-37.64c0.18-0.21,0.23-0.46,0.16-0.71c-0.02-0.07-0.05-0.14-0.05-0.21
	C334.15,407.57,334.08,407.55,333.96,407.66L333.96,407.66z"/>
<path class="st1" d="M285.01,610.25l-25.06,29.44c-8.23-4.24-16.3-10.4-24.2-18.44c-23.19-23.56-42.37-47.78-63.94-74.94
	c-0.9-1.15-1.36-0.99-1.36,0.46c0.25,31.56,0.28,61.59,0.07,90.15c-0.07,11.16-10.74,16.55-20.91,14.57
	c-9.7-1.87-14.52-9.22-14.41-22.04c0.44-51.82,0.81-99.83,1.15-144.06c0.05-3.48-0.32-7.05,1.61-10.17
	c7.26-11.69,20.75-7.58,27.68,1.89c21.55,29.5,41.54,55.55,59.91,78.14c11.23,13.81,22.17,26.35,32.85,37.59
	C265.25,600.06,274.13,605.85,285.01,610.25L285.01,610.25z"/>
<path class="st1" d="M611.1,630.65c13.16-4.93,19.43-18.6,19.52-31.99c0.21-34.32,0.32-69.59,0.3-105.78
	c0-9.59,0.09-22.84,12.68-23.97c14.64-1.31,22.04,5.65,22.17,20.91c0.35,35.66,0.41,71.78,0.21,108.41
	c-0.21,35.24-15.51,57.83-45.92,67.77c-11.04,3.62-23.42,6.87-33.79-0.42c-12.56-8.81-9.04-24.66,5.3-28.63
	C598.33,635.08,604.83,632.98,611.1,630.65L611.1,630.65z"/>
<path class="st1" d="M788.22,650.04c-47.92,5.87-91.65-29.02-97.66-77.95c-6-48.94,27.98-93.38,75.9-99.26
	c47.92-5.87,91.65,29.02,97.66,77.95C870.11,599.72,836.14,644.16,788.22,650.04 M785.57,613.95c28.21-4.41,47.41-31.4,42.89-60.26
	c-4.52-28.86-31.05-48.68-59.26-44.26c-28.21,4.41-47.41,31.4-42.89,60.26C730.82,598.54,757.35,618.37,785.57,613.95L785.57,613.95
	z"/>
<path class="st1" d="M536.05,568.81c2.86-23.76-11.02-47.16-33.35-55.71c-15.37-5.88-29.69-4.4-42.62,4.68
	c-12.33,8.67-27.22,2.01-27.45-13.37c-0.12-7.54,2.58-13.37,8.09-17.5c5.49-4.13,10.35-6.87,14.57-8.21
	c32.75-10.28,60.99-5.32,84.76,14.84c38.17,32.39,44.16,92.85,7.54,130.42c-27.5,28.24-71.55,34.37-104.99,13.9
	c-3.8-2.33-6.82-5.88-9.06-10.7c-7.68-16.55,7.15-31.56,23.53-21.85c10.05,5.99,18.03,9.73,30.56,8.62
	C514.15,611.61,532.89,595.04,536.05,568.81L536.05,568.81z"/>
<path class="st0" d="M259.95,639.69l25.06-29.44c25.42,9.47,47.88,5.88,67.4-10.76c9.7-8.27,15.49-19.8,17.36-34.6
	c2.35-18.6-2.88-33.49-15.7-44.67c-0.81-0.71-0.88-1.96-0.14-2.74c8-8.64,15.24-18.74,21.69-30.29c0.78-1.41,2.72-1.66,3.83-0.51
	c28.74,29.99,36.05,64.93,21.9,104.83c-9.52,26.81-32.48,46.31-60,54.91C315.04,654.62,287.91,652.39,259.95,639.69L259.95,639.69z"
	/>
</svg>
