<?xml version="1.0" encoding="utf-8"?>
<!-- Generator: Adobe Illustrator 24.1.0, SVG Export Plug-In . SVG Version: 6.00 Build 0)  -->
<svg version="1.1" id="Layer_1" xmlns="http://www.w3.org/2000/svg" xmlns:xlink="http://www.w3.org/1999/xlink" x="0px" y="0px"
	 viewBox="0 0 512 512" style="enable-background:new 0 0 512 512;" xml:space="preserve">
<g>
	<path d="M457.1,171.2c-20.6-32.8-52.6-56.9-89.9-67.4c-47-12.9-100-2.6-157.3,30.5c-0.3,0.2-31.4,17.9-61.1,13.8
		c-1.2-0.2-2.4,0.1-3.5,0.7c-2.7,1.5-3.6,4.9-2.1,7.5c5.6,8.9,5.7,20.2,0,29.1c-0.7,1.2-0.9,2.7-0.6,4.1c0.7,3,3.7,4.8,6.7,4.1
		c19-4.6,39,0.4,53.6,13.4c2.7,2.3,5.6,4.5,8.5,6.5h21.6c-8.2-4-15.9-9-22.9-14.9c-12.9-11.3-29.3-17.6-46.4-17.9l0,0
		c-2.1,0-4.3,0.1-6.6,0.3c2-6.9,1.9-14.3-0.4-21.2c20.6-0.5,40.7-5.9,58.7-15.9c54.6-31.5,104.6-41.4,148.6-29.5
		c33.4,9.7,62.3,30.7,81.6,59.5c-4.4,6.8-16.9,24.4-38.4,39.5h17.1c21.7-18.1,32.3-36.3,32.6-36.8
		C458.1,175,458.1,172.9,457.1,171.2z"/>
	<path d="M208.2,147c-1.9,0-3.7-1-4.7-2.6c-1.2-1.9-2.6-3.7-4.2-5.2c-4.2-4.1-6.6-9.8-6.5-15.7c0.1-5.4,2.5-10.6,6.6-14.2
		c12.9-11.4,27.4-20.9,43-28.2c10.9-5.3,23.5-6.2,35.1-2.7c13,4.3,24.3,12.6,32.3,23.7c1.8,2.4,1.3,5.9-1.1,7.8s-5.9,1.3-7.8-1.1
		c0,0,0,0,0,0c-6.7-9.2-16-16.1-26.8-19.7c-9-2.7-18.6-1.9-27.1,2.2c-14.6,6.9-28.2,15.8-40.3,26.5c-1.8,1.6-2.8,3.9-2.8,6.2
		c0,2.8,1.1,5.5,3.1,7.5c2.2,2.2,4.2,4.6,5.8,7.2c1.6,2.6,0.9,6-1.7,7.6C210.3,146.7,209.3,147,208.2,147z"/>
	<path d="M170.2,213.4h14.2c-3.3-3.9-6.4-7.8-9.3-12c-2.3-3.4-1.9-8,0.9-11c2-2.3,1.8-5.8-0.5-7.8c-2.3-2-5.8-1.8-7.8,0.5
		c-6.2,6.9-6.8,17-1.6,24.7C167.4,209.7,168.8,211.6,170.2,213.4z"/>
	<path d="M384.5,213.4c-20.5-52.2,16.4-84.8,18.1-86.3c2.3-2,2.6-5.5,0.6-7.8c-2-2.3-5.5-2.6-7.8-0.6c-0.5,0.4-42.7,37.3-22.8,94.7
		H384.5z"/>
	<ellipse transform="matrix(0.1602 -0.9871 0.9871 0.1602 176.9236 540.2244)" cx="405.9" cy="166.1" rx="7.8" ry="7.8"/>
	<path d="M405.9,176.7c-5.8,0-10.6-4.7-10.6-10.6s4.7-10.6,10.6-10.6c5.8,0,10.6,4.7,10.6,10.6c0,0,0,0,0,0
		C416.5,172,411.8,176.7,405.9,176.7L405.9,176.7z M405.9,161.1c-2.8,0-5,2.2-5,5s2.2,5,5,5c2.8,0,5-2.2,5-5
		C411,163.4,408.7,161.1,405.9,161.1z"/>
	<path d="M148.2,182.5c-10.3,2.3-21.4,11.2-32.1,19.7c-4.8,3.9-10,7.9-14.8,11.2h18.5c1.1-0.8,2.1-1.7,3.2-2.6
		c9.7-7.8,19.8-15.8,27.7-17.6c0.1,0,0.2,0,0.3-0.1c3-0.8,4.8-3.8,4-6.7C154.2,183.5,151.2,181.7,148.2,182.5z"/>
	<path d="M76.3,213.4h5.9c-0.2-0.9-0.3-1.9-0.4-2.8c-1.8-10.2,0.8-20.7,7.1-28.9c5.4-5.6,6.3-14.1,2.4-20.8
		c-6.1-9.2-8.5-20.3-6.6-31.2c1.1-4.1,5.3-6.6,9.5-5.7c8.2,1.9,19.4,10.1,30.8,22.6c6,5.9,13.5,10.1,21.6,12.3
		c0.1,0,0.3,0.1,0.4,0.1c3,0.8,6-1,6.7-4c0.8-3-1-6-4-6.7c-6.3-1.7-12-4.9-16.7-9.4c-9.1-10-22.8-22.5-36.2-25.7
		c-10-2.3-20.1,3.8-22.7,13.7c-2.7,13.7,0.1,27.9,7.7,39.6c1.4,2.4,1.1,5.5-0.9,7.6c-10.9,11.6-12.7,32.8-8.2,45.7
		c1,2.9,2.3,5.1,3.6,6.7V213.4z"/>
</g>
<g>
	<path d="M421.8,207.1H94.2c-16.5,0-29.9,13.4-29.9,29.9v145.6c0,16.5,13.4,29.9,29.9,29.9h327.6c16.5,0,29.9-13.4,29.9-29.9V237.1
		C451.7,220.5,438.3,207.1,421.8,207.1z M440.3,382.7c0,10.3-8.3,18.6-18.6,18.6H94.2c-10.2,0-18.6-8.3-18.6-18.6V237.1
		c0-10.3,8.3-18.6,18.6-18.6h327.6c10.3,0,18.6,8.3,18.6,18.6L440.3,382.7L440.3,382.7z"/>
	<path d="M421.8,231.4H355c-3.1,0-5.7,2.5-5.7,5.7s2.5,5.7,5.7,5.7h12.2c-8.5,11.9-14,19.1-17.2,23.3c-5,6.5-6.3,8.3-5.3,11.6
		c0.6,1.9,2,3.4,4,4c0.8,0.3,1.9,0.6,17.1,0.6c6.1,0,14.5-0.1,26.1-0.2c3.1,0,5.6-2.6,5.6-5.7c0-3.1-2.6-5.6-5.7-5.6
		c-9.8,0.1-22.6,0.2-31.2,0.2c4-5.3,10.6-14.1,20.6-28.1h34.9V377h-21.4c-1.2-6.5-4.8-12.1-9.8-16.1c6.3-4.9,10.3-12.5,10.3-21
		c0-14.7-12-26.7-26.7-26.7c-12.7,0-23.8,9.1-26.2,21.5c-0.6,3.1,1.4,6.1,4.5,6.7c3.1,0.6,6.1-1.4,6.7-4.5
		c1.4-7.2,7.8-12.4,15.1-12.4c8.5,0,15.4,6.9,15.4,15.4s-6.9,15.4-15.4,15.4c-3.1,0-5.7,2.5-5.7,5.7c0,3.1,2.5,5.7,5.7,5.7
		c6.7,0,12.4,4.4,14.5,10.4h-64.7V242.7h12.5c3.1,0,5.7-2.5,5.7-5.7s-2.5-5.7-5.7-5.7H94.2c-3.1,0-5.7,2.5-5.7,5.7v145.6
		c0,3.1,2.5,5.7,5.7,5.7h18.2c3.1,0,5.7-2.5,5.7-5.7c0-3.1-2.5-5.7-5.7-5.7H99.8V242.7h97.8V377h-61.1c-3.1,0-5.7,2.5-5.7,5.7
		c0,3.1,2.5,5.7,5.7,5.7h285.1c3.1,0,5.7-2.5,5.7-5.7V237.1C427.4,233.9,424.9,231.4,421.8,231.4L421.8,231.4z M209,242.7h97.8V377
		H209V242.7z"/>
	<path d="M264.8,263.7h-17.3c-3.1,0-5.7,2.5-5.7,5.7s2.5,5.7,5.7,5.7h11.7v75.5c0,3.1,2.5,5.7,5.7,5.7s5.7-2.5,5.7-5.7v-81.1
		C270.5,266.2,267.9,263.7,264.8,263.7L264.8,263.7z"/>
	<path d="M177.7,328.7v-37.5c0-16.1-13.1-29.1-29.1-29.1s-29.1,13.1-29.1,29.1v37.5c0,16.1,13.1,29.1,29.1,29.1
		S177.7,344.8,177.7,328.7z M130.8,328.7v-37.5c0-9.8,8-17.8,17.8-17.8s17.8,8,17.8,17.8v37.5c0,9.8-8,17.8-17.8,17.8
		S130.8,338.5,130.8,328.7z"/>
</g>
</svg>
