<?xml version="1.0" encoding="UTF-8"?>
<svg xmlns="http://www.w3.org/2000/svg" width="512" height="512" viewBox="0 0 128 128"><g><path d="M.905,35.4a1.749,1.749,0,0,0,0,3.064,12.6,12.6,0,0,0,16.124-3.432,50.477,50.477,0,0,0,19.716,8.726l-3.152,6.117a1.75,1.75,0,0,0,1.555,2.552,1.716,1.716,0,0,0,.267-.021l10.867-1.669A7.518,7.518,0,0,0,52.347,45.4l.2-.711a31.765,31.765,0,0,0,24.09-16.308,1.841,1.841,0,0,0,0-1.932A31.746,31.746,0,0,0,51.1,10.005L50.831,8.7a6.269,6.269,0,0,0-5.986-5.05L27.037,3.119a1.687,1.687,0,0,0-1.427.666A1.753,1.753,0,0,0,25.3,5.328l2.323,8.534a49.734,49.734,0,0,0-10.59,5.944A12.6,12.6,0,0,0,.905,16.374a1.75,1.75,0,0,0,0,3.065,9.115,9.115,0,0,1,4.718,7.978A9.117,9.117,0,0,1,.905,35.4Zm47.9,9.54a4.009,4.009,0,0,1-3.049,2.338l-7.473,1.148,2.08-4.036A58.492,58.492,0,0,0,48.8,44.936Zm8.69-17.519a23.137,23.137,0,0,1,3.021-11.456A29.536,29.536,0,0,1,73.172,27.417c-1.266,2.864-8.009,9.782-12.666,11.446A23.143,23.143,0,0,1,57.49,27.417ZM29.294,6.688l15.448.459A2.784,2.784,0,0,1,47.4,9.39l.1.511a55.723,55.723,0,0,0-16.588,2.746ZM9.123,27.417a12.6,12.6,0,0,0-3.745-8.964,9.1,9.1,0,0,1,9.658,4.719,1.75,1.75,0,0,0,2.642.548,46.163,46.163,0,0,1,12.647-7.151c8.349-2.992,18.369-4.411,26.9-1.884a26.669,26.669,0,0,0-.01,25.444c-5.406,1.759-11.686,1.5-17.3.647a47.083,47.083,0,0,1-22.239-9.662,1.761,1.761,0,0,0-2.642.548,9.106,9.106,0,0,1-9.658,4.719A12.6,12.6,0,0,0,9.123,27.417Z"/><path d="M38.139,33.666a1.752,1.752,0,0,0,2.083,1.107l11.04-2.838a1.749,1.749,0,0,0,1.314-1.7V24.6a1.75,1.75,0,0,0-1.411-1.717L36.034,19.9a1.751,1.751,0,0,0-1.987,2.3Zm10.937-7.627v2.844l-8.178,2.1-2.519-7.056Z"/><path d="M63.927,23.882a1.749,1.749,0,0,0-1.75-1.75H61.016a1.75,1.75,0,0,0,0,3.5h1.161A1.749,1.749,0,0,0,63.927,23.882Z"/><path d="M76.719,99.061l-.077-.151A31.744,31.744,0,0,0,51.1,82.464l-.264-1.307a6.27,6.27,0,0,0-5.986-5.05l-17.808-.529a1.674,1.674,0,0,0-1.427.666,1.753,1.753,0,0,0-.314,1.543l2.323,8.534a49.734,49.734,0,0,0-10.59,5.944A12.6,12.6,0,0,0,.905,88.833a1.749,1.749,0,0,0,0,3.064,9.117,9.117,0,0,1,4.718,7.979,9.115,9.115,0,0,1-4.718,7.978,1.75,1.75,0,0,0,0,3.065,12.6,12.6,0,0,0,16.124-3.432,50.477,50.477,0,0,0,19.716,8.726l-3.152,6.117a1.75,1.75,0,0,0,1.555,2.552,1.716,1.716,0,0,0,.267-.021l10.867-1.669a7.518,7.518,0,0,0,6.065-5.331l.2-.711a31.765,31.765,0,0,0,24.09-16.308A1.806,1.806,0,0,0,76.719,99.061Zm-19.229.815A23.137,23.137,0,0,1,60.511,88.42,29.536,29.536,0,0,1,73.172,99.876c-1.266,2.864-8.009,9.782-12.666,11.446A23.143,23.143,0,0,1,57.49,99.876Zm-28.2-20.729,15.448.458A2.787,2.787,0,0,1,47.4,81.849l.1.511a55.755,55.755,0,0,0-16.588,2.746ZM16.583,103.189a1.752,1.752,0,0,0-1.547.932,9.106,9.106,0,0,1-9.658,4.719,12.6,12.6,0,0,0,3.745-8.964,12.6,12.6,0,0,0-3.745-8.964,9.106,9.106,0,0,1,9.658,4.719,1.75,1.75,0,0,0,2.642.548,46.163,46.163,0,0,1,12.647-7.151c8.349-2.992,18.369-4.411,26.9-1.884a26.669,26.669,0,0,0-.01,25.444c-5.406,1.759-11.686,1.5-17.3.647a47.083,47.083,0,0,1-22.239-9.662A1.75,1.75,0,0,0,16.583,103.189ZM48.8,117.4a4.01,4.01,0,0,1-3.049,2.337l-7.473,1.148,2.08-4.036A58.949,58.949,0,0,0,48.8,117.4Z"/><path d="M40.222,107.232l11.04-2.837a1.751,1.751,0,0,0,1.314-1.7V97.06a1.75,1.75,0,0,0-1.411-1.717L36.034,92.357a1.751,1.751,0,0,0-1.987,2.305l4.092,11.463A1.752,1.752,0,0,0,40.222,107.232ZM38.379,96.388l10.7,2.11v2.844l-8.178,2.1Z"/><path d="M63.927,96.341a1.749,1.749,0,0,0-1.75-1.75H61.016a1.75,1.75,0,0,0,0,3.5h1.161A1.749,1.749,0,0,0,63.927,96.341Z"/><path d="M127.827,64.426a1.883,1.883,0,0,0-.093-1.7,31.749,31.749,0,0,0-25.558-16.468l-.264-1.307a6.268,6.268,0,0,0-5.986-5.05l-17.809-.529a1.7,1.7,0,0,0-1.426.666,1.75,1.75,0,0,0-.314,1.543L78.7,50.112a49.684,49.684,0,0,0-10.59,5.944,12.6,12.6,0,0,0-16.125-3.432,1.751,1.751,0,0,0,0,3.065,9.1,9.1,0,0,1,0,15.957,1.75,1.75,0,0,0,0,3.064A12.6,12.6,0,0,0,68.11,71.278,50.463,50.463,0,0,0,87.826,80l-3.152,6.117A1.762,1.762,0,0,0,86.5,88.652l10.867-1.669a7.518,7.518,0,0,0,6.064-5.331l.206-.711a31.764,31.764,0,0,0,24.1-16.33Zm-19.256-.759a23.134,23.134,0,0,1,3.021-11.456,29.536,29.536,0,0,1,12.661,11.456c-1.818,3.587-7.985,9.636-12.667,11.446A23.149,23.149,0,0,1,108.571,63.667Zm-28.2-20.729,15.449.459a2.782,2.782,0,0,1,2.658,2.243l.1.511A55.711,55.711,0,0,0,82,48.9ZM67.664,66.979a1.7,1.7,0,0,0-.355.037,1.745,1.745,0,0,0-1.192.9,9.106,9.106,0,0,1-9.658,4.719,12.6,12.6,0,0,0,0-17.928,9.1,9.1,0,0,1,9.658,4.719,1.749,1.749,0,0,0,2.641.548,46.155,46.155,0,0,1,12.648-7.151c8.349-2.992,18.369-4.411,26.9-1.884a26.676,26.676,0,0,0-.01,25.444c-5.406,1.759-11.687,1.5-17.3.646a47.079,47.079,0,0,1-22.237-9.661A1.748,1.748,0,0,0,67.664,66.979ZM99.881,81.186a4.011,4.011,0,0,1-3.05,2.338l-7.472,1.148,2.08-4.036A60.3,60.3,0,0,0,99.881,81.186Z"/><path d="M91.3,71.023l11.04-2.838a1.749,1.749,0,0,0,1.314-1.7V60.851a1.75,1.75,0,0,0-1.411-1.717L87.115,56.148a1.75,1.75,0,0,0-1.987,2.3l4.091,11.463a1.75,1.75,0,0,0,1.647,1.162A1.774,1.774,0,0,0,91.3,71.023ZM89.459,60.179l10.7,2.11v2.844l-8.179,2.1Z"/><path d="M115.008,60.132a1.75,1.75,0,0,0-1.75-1.75H112.1a1.75,1.75,0,0,0,0,3.5h1.161A1.75,1.75,0,0,0,115.008,60.132Z"/></g></svg>
